<?xml version="1.0" encoding="utf-8"?>
<!-- Generator: Adobe Illustrator 28.2.0, SVG Export Plug-In . SVG Version: 6.00 Build 0)  -->
<svg version="1.1" xmlns="http://www.w3.org/2000/svg" xmlns:xlink="http://www.w3.org/1999/xlink" x="0px" y="0px"
	 viewBox="0 0 612 792" style="enable-background:new 0 0 612 792;" xml:space="preserve">
<style type="text/css">
	.st0{fill:none;stroke:#000000;stroke-miterlimit:10;}
	.st1{fill:#C49A6C;stroke:#2E3192;stroke-miterlimit:10;}
	.st2{fill:none;}
	.st3{fill:none;stroke:#2E3192;stroke-miterlimit:10;}
	.st4{fill:#FFF1E1;}
	.st5{fill:#414042;}
	.st6{fill:#E4D7C3;}
	.st7{fill:none;stroke:#603913;stroke-miterlimit:10;}
	.st8{fill:#C49A6C;}
	.st9{fill:#A97C50;}
	.st10{opacity:0.35;fill:#A97C50;}
	.st11{fill:#FFF1E2;}
	.st12{fill:#FFFFFF;stroke:#000000;stroke-miterlimit:10;}
	.st13{fill:#C2B59B;}
	.st14{opacity:0.24;fill:#594A42;}
	.st15{opacity:0.23;fill:#FFFFFF;}
	.st16{fill:#FFF1E3;}
	.st17{opacity:0.08;fill:#594A42;}
	.st18{fill:#594A42;}
	.st19{fill:#887166;}
	.st20{opacity:0.23;fill:#9B8579;}
	.st21{fill:#FFFFFF;}
	.st22{opacity:0.23;fill:#A97C50;}
	.st23{stroke:#000000;stroke-miterlimit:10;}
	.st24{fill:#D1D3D4;}
</style>
<g id="Layer_1">
	<path class="st0" d="M478.23,254.36"/>
	<path class="st0" d="M447.66,105.41"/>
	<path class="st1" d="M201.96,241.81v-27.15c0-5.05,0.49-9.99,1.41-14.76"/>
	<g>
		<path class="st2" d="M249.77,117.93c1.98-3.46,6.67-10.57,15.57-15.83c7.59-4.48,14.75-5.57,18.64-5.87"/>
		<g>
			<path class="st2" d="M391.65,255.29"/>
			<path class="st2" d="M383.82,193.67c5.09,14.29,9.51,33.33,8.17,55.49c0,0-2.17,12.44-1.36,12.6c0.44,0.09,1.05-7.17,6.3-13.45
				c1.77-2.12,4.39-5.25,8.34-5.79c6.14-0.83,11.27,5.17,12.09,6.13c7.11,8.33,7.58,23.96-0.34,34.72
				c-6.7,9.1-18.85,13.41-30.82,11.62"/>
			<path class="st2" d="M173.25,236.61c12.74-1.85,18.76-6.71,21.89-10.93c7.49-10.1,3.04-22.66,7.66-48.26
				c0.74-4.09,1.7-8.48,3.06-13.28c0.09-0.31,2.2-7.66,5.36-15.32c5.14-12.44,11.72-28.37,22.72-42.13
				c7.81-9.76,25.17-31.47,52.6-33.96c6.22-0.56,30.31-2.75,43.66,15.06c9.65,12.89,10.24,31.64,1.53,48"/>
			<path class="st2" d="M225.77,177.67c-0.24,2.96-0.32,7.23,0.51,12.26c0.72,4.3,1.54,9.24,4.6,13.79
				c5.04,7.49,13.44,9.85,16.85,10.6"/>
			<path class="st2" d="M219.39,92.65c-5.86,7.01-12.87,16.93-18.64,29.87c-8.54,19.17-10.59,36.56-10.98,47.74"/>
			<path class="st2" d="M311.82,88.57c3.41,2.35,11.58,8.67,16.09,20.17c3.3,8.41,3.19,15.89,2.82,19.95"/>
			<path class="st2" d="M296.97,96.23c4.02,1,13.89,4.03,22.17,13.19c6.06,6.71,8.59,13.74,9.68,17.67"/>
			<path class="st2" d="M297.28,95.91c5.34,2.5,13.79,7.31,21.43,16.14c4.8,5.56,7.86,11.05,9.81,15.34"/>
			<path class="st2" d="M292.48,140.37c0.98-1.12,4-4.26,9.03-5.29c3.74-0.77,6.81,0,8.28,0.47c0.67-0.11,6.3-0.95,10.45,3.06
				c2.45,2.38,3.12,5.23,3.32,6.38"/>
			<path class="st2" d="M332.38,136.44c-0.53,0.87-3.52,6.01-1.67,12.19c1.22,4.08,3.91,6.48,5.04,7.38
				c1.73,1.14,3.97,2.93,5.94,5.64c4.57,6.29,4.49,13.14,4.34,15.57"/>
			<path class="st2" d="M289.19,148.6c1.7-1.77,5.21-4.92,10.63-6.67c7.73-2.5,14.34-0.53,16.6,0.26"/>
			<path class="st2" d="M304.16,143.46"/>
			<path class="st2" d="M335.61,139.87"/>
			<line class="st2" x1="336.51" y1="123.27" x2="336.51" y2="123.27"/>
			<line class="st2" x1="396.71" y1="181.5" x2="397.68" y2="181.74"/>
			<path class="st2" d="M376.56,155.51c-1.69-1.34-4.39-3.29-8.06-5.02c-2.23-1.06-4.24-1.74-8.17-3.06
				c-6.94-2.34-8.1-2.32-10.34-3.83c-0.95-0.64-2.67-1.95-5.36-5.74c-2.3-3.24-5.47-8.54-7.76-16.16
				c0.85,5.76,3.01,13.66,9.17,19.74c7.93,7.83,16.57,6.78,26.68,11.87c7.37,3.71,16.64,11.24,24,28.21"/>
			<path class="st2" d="M201.15,195.54c-2.75,0.54-8.53,1.21-14.03-1.95c-4.68-2.7-6.99-6.94-8.06-9.4"/>
			<path class="st2" d="M192.09,202.61c-2.75,0.54-8.53,1.21-14.03-1.95c-4.68-2.7-6.99-6.94-8.06-9.4"/>
			<path class="st2" d="M192.75,202.63c-2.62,1.18-8.17,3.17-13.76,0.96c-4.77-1.89-7.38-5.96-8.62-8.38"/>
			<path class="st2" d="M207.42,258.59c0.03,0.15,0.06,0.3,0.08,0.44"/>
			<path class="st2" d="M207.42,258.59"/>
			<path class="st2" d="M196.41,233.16c0.72,4,1.94,6.95,2.93,8.9c2.36,4.68,4.89,6.73,6.86,12.17c0.35,0.95,0.61,1.84,0.82,2.63"/>
			<path class="st2" d="M208.42,258.39c-0.79-1.61-2.07-3.88-4.08-6.27c-2.29-2.72-4.04-4.79-7.04-5.84
				c-3.95-1.38-7.63-0.15-9.83,0.6c-3.87,1.3-6.3,3.5-7.39,4.5c-0.81,0.75-2.93,2.81-4.41,5.62c-3.09,5.86-1.86,12.06-1.2,15.32
				c0.68,3.43,3.15,15.79,14.81,22.13c9.02,4.9,17.98,3.16,20.6,2.55"/>
			<path class="st2" d="M211.05,265.08"/>
			<path d="M336.67,64.53c10.65,11.13,10.46,26.16,10.38,28.77c-0.09,2.88-1.55,11.43-1.16,8.57c0,0,0.12-0.81,0.12-0.81
				c0.1-0.7,1.02-4.63,1.56-6.01c0.97-2.5,4.31-6.04,8.68-8.55c5.1-2.94,14.8-6.38,25.19-3.57c11.9,3.22,18.13,12.6,25.7,24
				c2.06,3.1,8.21,12.81,11.5,26.11c0.95,3.85,2.02,8.16,2.29,14.06c0.25,5.68-0.47,7.73,0.17,13.28c0.57,4.98,1.6,7.15,2.72,11.57
				c1.54,6.05,1.77,10.62,2.21,19.74c0.58,11.83,1.1,24.13-2.21,39.32c-1.02,4.66-3.7,16.99-6.47,16.85
				c-3.81-0.19,0.53-23.65-13.79-40c-1.86-2.12-9.12-4.99-17.16-12.47c-1.07-1-1.82-1.75-2.59-2.51
				c-11.15-11.13-12.36-17.5-19.4-22.47c-8.67-6.12-10.8-3.08-17.02-8.51c-6.9-6.02-10.69-26.53-15.66-26.89
				c-3.53-0.26-6.62,9.73-8.17,9.19c-0.83-0.29,0.04-3.17,0.44-6.82c0.36-3.34,0.32-7.32-1.8-10.54c-2.23-3.38-6.8-5.75-11.23-5.79
				c-9.74-0.08-16.81,13.68-20.72,23.87c-1.66,4.33-2.75,8.01-3.23,9.72c-0.12,0.44-0.22,0.79-0.22,0.79
				c-0.98,3.67-3,11.18-0.67,19.58c0.91,3.26,1.99,7.17,5.31,10.18c1.69,1.53,5.57,4.29,5.57,4.29c0,0-6.36-0.74-8.17-1.7
				c-11.06-5.84-8.54-27.93-10.21-27.91c-1.09,0.01-2.15,9.25-1.79,18.81c0.56,15.02,4.2,19.46,5.74,21.06
				c0.79,0.83,3.03,3.1,6.64,4.21c4.28,1.32,8.1-0.27,8.17,0c0.08,0.33-5.39,3.16-11.36,3.32c-13.59,0.36-23.74-13.31-25.53-15.83
				c-11.78-16.61-5.1-38.53-5.62-38.55c-0.42-0.02-4.75,14.45,0.64,30.89c5.35,16.33,16.71,23.71,15.7,24.77
				c-1.35,1.41-23.28-10.06-27.57-30.13c-0.45-2.11-1.54-9.56,0-16.34c0.04-0.19,0.05-0.23,0.12-0.51c1.43-6.3,1.6-11.06,1.67-12.38
				c0.46-8.52,4.95-18.05,4.72-18.13c-0.31-0.11-8.75,17.35-10.21,34.85c-0.17,2.08-0.39,5.79-1.02,12.13
				c-0.82,8.17-1.85,9.83-1.53,14.43c0.22,3.25,0.53,7.62,3.19,12c3.26,5.35,7.84,7.09,7.15,9.06c-0.1,0.28-0.27,0.47-5.87,2.17
				c-3.36,1.02-5.06,1.48-7.23,0.98c-0.04-0.01-0.87-0.21-1.71-0.59c-4.37-2-7.05-8.11-7.4-8.94c-3.48-8.16-5.23-12.24-6.26-17.87
				c-2.87-15.7-0.88-25.49-2.04-25.66c-1.36-0.2-5.89,12.9-5.87,27.19c0.01,10.41,2.43,22.13,4.33,25.45
				c0.14,0.24,0.56,0.94,0.39,1.1c-0.42,0.39-4.63-2.47-7.02-6.26c-3.23-5.11-2.61-10.74-2.81-10.72
				c-0.23,0.02,0.62,7.47-0.13,15.66c-0.57,6.17-1.71,9.2-2.38,12.6c-3.32,16.88,7.04,33.41,6.13,33.79
				c-0.82,0.33-4.56-14.63-13.96-16.77c-4.19-0.95-5.8,1.51-10.98-0.09c-5.63-1.73-9.11-6.27-10.56-8.17
				c-2.61-3.41-3.54-6.48-3.73-7.15c-0.06-0.21-0.44-1.29-0.57-2.64c-0.3-2.99,0.72-5.56,1.08-13.45
				c0.7-15.31-2.45-18.71-0.26-28.85c1.04-4.81,4.45-11.25,5.87-14.3c1.92-4.11,2.91-5.77,3.83-8.94
				c1.82-6.26,1.35-11.39,1.28-12.77c-0.59-11.57,12.78-48.74,44.43-75.32c11.35-9.53,20.36-16.88,31.4-15.83
				c4.96,0.47,9.62,2.57,17.62,1.79c6.79-0.67,10.48-2.89,14.63-4.63"/>
		</g>
	</g>
	<path class="st2" d="M386.05,294.47c-3.36,8.15-9.58,19.54-21.18,28.32c-16.25,12.3-34.21,12.22-69.46,11.56
		c-32.99-0.62-49.81-1.18-65.69-13.26c-11.34-8.63-17.55-19.47-20.91-26.89"/>
	<path class="st3" d="M386.54,293.26c-0.16,0.4-0.32,0.8-0.49,1.21"/>
	<path class="st3" d="M208.81,294.19c-0.01-0.31-0.02-0.62-0.02-0.94"/>
	<path class="st4" d="M321.43,145.95c-0.98-0.12-2.29-0.33-3.83-0.72c-0.74-0.19-1.29-0.33-2.04-0.6c-2.31-0.82-2.97-1.6-4.71-1.84
		c-0.69-0.09-1.25-0.06-1.59-0.03c-0.56,0.03-1.24,0.03-2-0.08c-0.6-0.08-1.13-0.21-1.57-0.35c-8.46-0.95-15.25,5.79-16.09,6.64
		c-10.6,10.83-6.59,33.98,2.65,38.9c2.31,1.23,5.5,1.6,5.43,1.96c-0.08,0.48-6.1,0.93-10.33-1.24
		c-10.86-5.57-7.82-27.34-10.26-27.44c-2.17-0.09-5.53,18.19-1.19,30.72c1.98,5.71,4.98,8.56,6.01,9.47c1.14,1,3.27,2.85,6.5,3.72
		c4.62,1.24,8.69-0.26,8.77,0.09c0.06,0.27-2.5,1.32-5.11,1.87c-8.72,1.85-18.93-1.65-26.47-7.83c-8.06-6.6-11.27-14.78-11.57-14.6
		c-0.45,0.28,2.78,7.69,8.14,15.47c5.97,8.68,10.89,11.45,10.52,11.94c-0.87,1.12-26.25-14.21-29.89-29.83
		c-0.82-3.51-1.19-7.57-1.19-7.57c-0.66-7.17,0.15-12.71,0.59-15.54c2.4-15.42,6.06-28.04,5.79-28.12
		c-0.3-0.09-6.16,15.01-9.7,34.64c0,0-2.4,13.28-1.53,28.68c0.17,3,0.77,5.74,0.77,5.74c0.15,0.92,0.71,3.25,1.58,5.27
		c2.68,6.19,8.13,7.81,7.48,9.84c-0.13,0.4-0.5,0.81-4.34,1.87c-3.61,1-6.43,1.77-7.96,1.79c-5.71,0.06-11.96-10.38-15.4-21.79
		c-5.34-17.67-2.07-31.4-3.49-31.57c-1.3-0.16-4.28,11.33-4.85,22.47c-0.27,5.38-0.51,9.93,0.85,15.4c0.75,3.03,1.37,6.1,2.21,9.11
		c1.13,4,1.87,5.9,1.19,6.38c-0.86,0.6-3.49-1.41-5.19-3.32c-3.2-3.59-3.47-7.33-4.09-7.23c-0.81,0.12,0.19,6.48-0.94,15.06
		c-0.52,4-1.02,5.07-1.53,8.09c-0.47,2.8-1.3,11.55,1.07,20.23c2.93,10.75,9.31,18.03,9.4,17.98c0.06-0.03-2.5-3.45-8.3-13.11
		c-1.85-3.08-3.15-5.32-5.96-7.06c-2.92-1.81-5.8-2.04-7.1-2.13c-0.47-0.03-8.88-0.43-14.58,5.93c-0.42,0.47-2.53,2.88-3.72,6.92
		c-3.74,12.77,4.51,32.42,18.17,37.21c5.08,1.78,13.02,2.26,14.62-0.64c0.39-0.7,0.68-2.1,1.28-2.12c0.74-0.02,1.34,2.03,1.5,2.56
		c0.48,1.56,2.95,4.89,7.15,12c3.46,5.86,7.69,9.47,10.27,11.67c8.37,7.14,17.23,9.57,22.49,10.95c6.74,1.77,12.59,2.14,22.14,2.74
		c2.02,0.13,4.62,0.21,9.82,0.38c4.36,0.14,13.23,0.4,25.28,0.48c3.8,0.03,7.91,0.03,12.85-0.03c2.62-0.03,9.67-0.17,17.87-1.3
		c4.3-0.59,6.63-0.91,9.41-1.66c8.96-2.42,15-7.31,18.58-10.27c13.72-11.35,21.05-26.77,20.31-27.32c-0.07-0.05-0.25-0.02-0.25,0
		c-0.01,0.07,1.97,0.55,3.7,0.7c2.79,0.24,5.5-0.33,5.49-0.64c-0.01-0.42-5.09-0.65-5.11-0.51c-0.01,0.08,1.63,0.37,2.68,0.49
		c6.13,0.69,11.41-2.28,13.78-3.62c3.12-1.76,5.16-3.6,5.62-4.02c1.47-1.35,6.99-6.55,8.81-15.13c0.28-1.3,2.87-14.45-5.43-22.79
		c-1.39-1.39-5.2-5.22-10.28-4.91c-5.11,0.31-8.49,4.61-10.28,6.89c-4.82,6.14-5.37,12.96-5.81,12.87
		c-0.45-0.09,0.59-7.03,1.24-11.49c1.66-11.35,0.72-19.56-0.85-33.23c-0.95-8.24-2.16-14.94-6.64-22.21c0,0,0,0,0,0
		c-1.84-5.61-5.03-12.57-10.65-19.19c-3.23-3.8-5.24-6.16-8.86-8.32c-5.95-3.54-9.95-2.79-14.81-7.4c-2.82-2.67-2.07-3.49-4.47-4.98
		c-4.27-2.66-11.19-2.87-12.72-2.69c-0.07,0.01-0.25,0.03-0.48-0.01c-1.35-0.25-2.02-2.3-2.3-3.15c-1.26-3.86,1.38-13.68,1.62-14.55
		"/>
	<path class="st5" d="M377.51,186.91c3.44,6.63,5.84,12.31,7.4,16.34c4.69,12.05,7.59,19.73,7.05,29.57
		c-0.01,0.09,0,0.05-1.41,10.89c-1.53,11.79-2.28,17.69-1.46,17.9c1.37,0.35,3.27-15.37,12.16-18.03c2.33-0.7,6.91-1.02,10.47,1.28
		c2.46,1.59,3.63,3.91,4.34,3.57c0.8-0.38-0.05-3.54-0.71-6.63c-1.57-7.38-0.74-8.13-1.84-13.8c-1.05-5.39-2.36-12.09-7.15-18
		c-1.85-2.28-6.08-6.74-14.04-9.45"/>
	<ellipse class="st6" cx="227.68" cy="271.72" rx="16.63" ry="6.32"/>
	<ellipse class="st6" cx="366.79" cy="273.94" rx="16.63" ry="6.32"/>
	<path class="st7" d="M321.36,206.79c4.22-2.02,17.11-7.5,32.9-3.81c9.28,2.17,15.87,6.65,19.53,9.6"/>
	<path class="st7" d="M218.09,206.79c4.22-2.02,17.11-7.5,32.9-3.81c9.28,2.17,15.87,6.65,19.53,9.6"/>
	<path class="st8" d="M375.3,166.8c-82.31-30.25-158.78-13.03-195.82-1.62c-0.45-2.99-1.31-7.93-3.03-13.88
		c-3.34-11.56-6.67-15.8-7.4-24.51c-0.27-3.22-0.28-8.05,1.32-14.12c1.03-15.72,7.77-24.11,10.68-27.25
		c4.84-5.21,10.24-7.87,19.66-12.51c8.53-4.2,15.98-6.82,21.19-8.43c7.35-4.78,22.44-12.92,40.85-10.72c3.12,0.37,6.02,1,8.68,1.79
		c3.53-0.13,9.06-0.29,15.83-0.26c35.68,0.2,59.25,5.57,94.21,13.79c19.04,4.48,29.27,7.65,37.79,17.11
		c5.91,6.56,8.73,13.65,10.17,18.39c-1.13,29.03-2.27,58.06-3.4,87.09C411.57,182.65,394.69,173.93,375.3,166.8z"/>
	<rect x="380.53" y="123.27" class="st8" width="8.91" height="11.6"/>
	<path class="st8" d="M359.26,39.98"/>
	<path class="st8" d="M292.81,51.79"/>
	<path class="st8" d="M376.76,166.8c-82.31-30.25-158.78-13.03-195.82-1.62c-0.45-2.99-1.31-7.93-3.03-13.88
		c-3.34-11.56-6.67-15.8-7.4-24.51c-0.27-3.22-0.28-8.05,1.32-14.12c1.03-15.72,7.77-24.11,10.68-27.25
		c4.84-5.21,10.24-7.87,19.66-12.51c8.53-4.2,15.98-6.82,21.19-8.43c7.35-4.78,22.44-12.92,40.85-10.72c3.12,0.37,6.02,1,8.68,1.79
		c3.53-0.13,9.06-0.29,15.83-0.26c35.68,0.2,59.25,5.57,94.21,13.79c19.04,4.48,29.27,7.65,37.79,17.11
		c5.91,6.56,8.73,13.65,10.17,18.39c-1.13,29.03-2.27,58.06-3.4,87.09C413.03,182.65,396.15,173.93,376.76,166.8z"/>
	<path class="st2" d="M527.46-186.17c-1.13,29.03-2.27,58.06-3.4,87.09c-14.46-9.02-31.34-17.74-50.73-24.87
		c-82.31-30.25-158.78-13.04-195.82-1.62c-0.45-3-1.32-7.93-3.03-13.88c-3.34-11.56-6.67-15.8-7.41-24.51
		c-0.27-3.22-0.28-8.05,1.32-14.12c1.04-15.72,7.77-24.11,10.68-27.25c4.85-5.21,10.25-7.87,19.66-12.51
		c8.54-4.2,15.98-6.82,21.19-8.42c7.35-4.78,22.44-12.92,40.85-10.72c3.12,0.37,6.02,1,8.69,1.78c3.52-0.13,9.06-0.29,15.82-0.25
		c35.68,0.19,59.26,5.57,94.22,13.78c19.04,4.48,29.27,7.66,37.78,17.11C523.19-198,526.02-190.91,527.46-186.17z"/>
	<path class="st9" d="M430.82,159.66c-1.14,10.65-2.28,21.3-3.43,31.95c-1.02-0.61-2.6-1.55-4.52-2.69
		c-5.51-3.25-10.01-5.88-11.25-6.56c-9.1-5-20.84-10.67-37.71-17.21c-2.72-1.05-4.87-1.73-6.75-2.22
		c-5.21-1.36-6.15-1.27-11.68-2.55c-7.12-1.65-13.82-3.93-18.16-4.82c-1.22-0.25-2.73-0.55-2.73-0.55
		c-1.98-0.39-2.98-0.58-3.86-0.72c-2.53-0.4-3.12-0.24-5.35-0.5c0,0-2.23-0.26-5.45-1.11c-7.66-2.01-14.02-12.35-25.62-16.51
		c-5.91-2.12-8.6-0.99-11.23-4.09c-3.27-3.85-1.61-8.51-2.38-12.26c-3.23-15.65-53.31-18.1-54.13-13.96
		c-0.58,2.95,24.51,4.4,28.94,19.06c2.66,8.82-2.82,20.19-10.72,25.36c-5.76,3.77-7.99,0.81-20.26,3.23
		c-8.29,1.64-43.08,9.93-45.08,9.59c-0.31-0.05-1.36-0.48-1.36-0.48c-0.1-0.15-0.17-0.31-0.2-0.5c-0.23-1.39-3.31-10.35-2.82-12.49
		c1.42-6.15,40.95-1.66,58.82,0.14c46.59,4.69,42.15-3.51,92.61,0.61c47.4,3.87,61.1,12.16,78.11,1.77
		c16.59-10.13,23.16-30,26.11-45.66"/>
	<path class="st10" d="M270.9,128.16c-0.04,1.68-0.34,4.17-1.68,6.61c-0.17,0.3-1.49,1.25-2.62,3.03c-0.36,0.56-0.53,0.84-0.57,1.03
		c-0.49,2.71,4.96,7.8,4.22,8.4c-0.92,0.74-10.46-6.24-19.16-12.15c-18.98-12.9-21.98-12.57-32.57-20.75
		c-5.61-4.33-13.68-11.3-22.18-21.76c-2.57-2.35-5.35-5.12-8.12-8.34c-1.24-1.43-2.22-2.66-2.96-3.62"/>
	<path class="st10" d="M293.64,144.32c-1.8-0.74-4.26-2.06-5.84-4.39c-0.2-0.29-0.17-1.98-1.2-3.82c-0.33-0.58-0.49-0.87-0.66-0.98
		c-2.56-1.61-12.43,1.62-12.49,0.64c-0.07-1.21,15.11-7.66,28.46-13.73c29.13-13.24,31.17-16.31,48.5-23.3
		c9.18-3.7,23.18-8.72,41.32-12.7c4.6-1.54,9.83-3.11,15.54-4.5c2.54-0.62,4.66-1.07,6.29-1.4"/>
	<path class="st9" d="M319.57,636.15L319.57,636.15c-14.29,0-25.88-11.59-25.88-25.88V502.2c0-14.29,11.59-25.88,25.88-25.88h0
		c14.29,0,25.88,11.59,25.88,25.88v108.07C345.45,624.56,333.86,636.15,319.57,636.15z"/>
	<path class="st9" d="M261.38,636.15L261.38,636.15c-14.29,0-25.88-11.59-25.88-25.88V502.2c0-14.29,11.59-25.88,25.88-25.88h0
		c14.29,0,25.88,11.59,25.88,25.88v108.07C287.26,624.56,275.67,636.15,261.38,636.15z"/>
	<path class="st8" d="M302.1,517.88h-22.03c-39.36-12.12-49.93-26.15-52.01-37.02c-2.11-11.06,4.64-18.6,6.81-40.88
		c1.51-15.49-0.14-28.4-1.75-36.85c6.78-12.12,6.4-19.89,4.47-24.89c-3.43-8.92-13.16-12.75-11.83-17.11
		c0.53-1.75,2.61-2.8,10.3-4.34c30.31-6.06,47.33,0.52,48.48,1.11c0.12,0.06,1.07,0.57,2.44,1.02c0.46,0.15,0.98,0.3,1.56,0.43
		c6.68,1.47,12.97-1.54,17.26-4.32c2.44-0.5,19.58-3.73,34.33,7.98c12.15,9.64,14.58,22.98,15.08,26.16
		c-4.19,12.52-8.94,32.02-7.65,55.93c0.78,14.53,3.59,26.87,6.55,36.39C353.18,485.67,349.93,497.74,302.1,517.88z"/>
	<path class="st0" d="M274.18,357.51"/>
	<path class="st0" d="M308.35,357.62"/>
	<path class="st11" d="M278.51,348.64c0.72-1.63,1.66-4.3,1.81-7.7c0.13-2.92-0.37-5.32-0.83-6.92c7.56,0.05,15.12,0.1,22.68,0.15
		c-0.51,2.59-0.58,4.77-0.53,6.32c0,0,0.17,4.17,1.47,7.47c0.43,1.08,0.96,2.06,0.96,2.06c0.37,0.69,0.69,1.19,0.89,1.49
		c2.22,3.37,2.89,3.72,2.81,4.55c-0.1,1.03-1.24,1.66-3.15,2.68c-2.88,1.55-5.39,2.05-5.79,2.13c-1.96,0.38-3.27,0.43-8.74,0.23
		c-7.22-0.26-7.32-0.17-8.49-0.45c-3.7-0.86-8.21-2.98-8.09-4.94c0.05-0.81,0.85-1.01,2.26-2.6
		C277.2,351.51,278.02,349.86,278.51,348.64z"/>
	<path class="st0" d="M274.21,354.57"/>
	<path class="st12" d="M279.91,334.02"/>
	<path class="st13" d="M279.72,334.34c0.41,0.35,1.09,0.89,1.96,1.41c2.45,1.48,4.12,1.44,10.76,1.52c3.25,0.04,4.07,0.06,5.45-0.41
		c1.77-0.61,3.16-1.58,4.09-2.35"/>
	<path class="st11" d="M282.77,350.74"/>
	<path class="st11" d="M286.66,364.11"/>
	<path class="st14" d="M285.28,386.72"/>
	<path class="st14" d="M295.44,380.88c-0.1,0.24-0.25,0.5-0.48,0.8"/>
	<path class="st14" d="M251.94,375.43c-0.54-1.88-2.45-7.63-8.23-11.98c-1.21-0.91-9.66-7.07-14.47-4.53
		c-9.32,4.93-4.54,42.31,5.62,44.43c6.13,1.28,16.76-9.74,17.43-20.7c0.06-0.93,0.05-2.01-0.09-3.22"/>
	<path class="st8" d="M232.35,358.43c2.02,0.33,3.86,1.1,5.41,2.37c0.01,0.01,3.32,2.71,3.33,2.71c0,0,1.86,1.52,1.87,1.52
		c1.2,1.61,4.91,6.16,4.27,12.54c-0.52,5.17-2.94,10.91-7.13,16l-4.08,4.95l-33.88,41.06c-8.29,10.04-20.4,13.71-27.13,8.22
		l-5.19-4.24c-6.81-5.56-5.53-18.37,2.86-28.54l37.96-46C217.01,361.3,225.64,357.34,232.35,358.43"/>
	<path class="st2" d="M179.79,406.4c-0.21,0.74-3.25,11.92,4.45,20.64c5.63,6.38,14.7,8.84,23.09,6.24"/>
	<path class="st11" d="M177.43,409.62c-0.58-0.17-1.18,0.99-4.75,5.41c-1.46,1.8-1.37,1.63-1.82,2.25c-0.37,0.51-2.05,2.86-3.49,6.6
		c-0.67,1.73-1.37,3.54-1.72,6.12c-0.54,3.96,0.16,6.73,0.31,7.3c0.52,1.97,1.23,3.16,1.47,3.53c0.71,1.13,1.45,1.87,2.1,2.47
		c3.48,3.28,5.21,4.93,7.85,5.96c2.49,0.98,4.6,1.07,5.3,1.09c2.17,0.05,3.76-0.39,5.15-0.78c0,0,4.79-1.36,9.46-5.15
		c1.32-1.07,2.57-2.32,2.57-2.32c0.74-0.74,1.26-1.33,1.87-2.02c1.55-1.76,1.63-2.04,3.01-3.63c1.67-1.92,2.06-2.1,1.96-2.37
		c-0.38-1.02-5.59,1.51-11.75,0.31c-4.19-0.82-7.08-3.02-8.33-3.99c-1.05-0.82-3.76-3.08-5.84-6.96c-1.81-3.38-2.29-6.69-2.48-7.93
		C177.74,411.92,178.18,409.83,177.43,409.62z"/>
	<rect x="245.89" y="375.89" class="st8" width="0.51" height="1.49"/>
	<path class="st8" d="M246.18,360.75c0.93,0.51,1.85,1.02,2.78,1.53l0,0"/>
	<path class="st8" d="M241.28,356.8"/>
	<path class="st15" d="M307.38,355.91c0.01,0,0.02,0,0.04,0c0.59,0.08,4.42,0.8,4.42,0.8c8.38,1.82,15.46,2.43,21.57,6.02
		c1.27,0.75,3.05,1.95,4.75,3.76c0.94-0.48,1.58-0.93,2.02-1.27c0.21-0.17,0.75-0.6,0.71-0.63c-0.04-0.02-0.69,0.36-0.61,0.42
		c0.1,0.08,1.71-0.21,2.12-0.81c0.8-1.17-2.88-3.72-5.32-4.98c-4.9-2.54-10.32-3.48-12.76-3.88c-1.25-0.2-0.46-0.03-4.75-0.59
		c0,0-4.14-0.54-10.33-0.79c-0.28-0.01-1.71-0.06-1.8,0.26c-0.06,0.23,0.65,0.43,0.72,0.83
		C308.2,355.51,307.39,355.91,307.38,355.91z"/>
	<g>
		<path class="st8" d="M332,377.08c0.23,2.03,0.93,3.91,2.13,5.52l4.02,5.39c5.27,7.07,18.22,6.39,28.84-1.52l5.17-3.85l42.9-31.94
			c10.49-7.81,14.76-19.74,9.55-26.73l-4.02-5.39c-5.27-7.07-18.22-6.39-28.84,1.52l-48.07,35.79
			C335.62,361.88,331.23,370.33,332,377.08"/>
		<path class="st2" d="M382.74,326.8c0.75-0.18,12.14-2.69,20.55,5.41c6.15,5.93,8.2,15.11,5.19,23.37"/>
		<path class="st16" d="M387.05,324.36c-0.21-0.72,1.34-1.84,4.46-4.09c1.3-0.94,2.22-1.6,3.62-2.41c1-0.58,3.07-1.76,5.84-2.69
			c1.79-0.6,6.82-2.22,12.15-1.11c1.98,0.41,3.23,1.04,3.82,1.38c1.28,0.72,2.26,1.57,3.18,2.55c2.65,2.81,6.21,6.57,6.64,12.21
			c0.22,2.96-0.51,5.21-1.03,6.8c-0.23,0.69-0.5,1.28-0.64,1.59c-0.26,0.59-1.18,2.6-2.89,4.97c-0.37,0.51-1.96,2.68-4.52,4.99
			c-0.32,0.29-0.92,0.78-2.11,1.76c-3.39,2.79-3.65,2.83-3.85,2.77c-1.28-0.36-0.27-4.31-1.53-9.99c-0.39-1.76-1.17-5.13-3.61-8.63
			c-0.77-1.1-2.92-3.95-6.72-6.24c-3.58-2.16-7.3-2.79-7.85-2.88C389.06,324.83,387.28,325.11,387.05,324.36z"/>
	</g>
	<path class="st17" d="M271.95,354.93c1.61-0.12,1.31,3.79,7.19,5.5c2.41,0.7,4.12,0.81,7.04,0.9c6.9,0.22,5.65,0.61,9.06,0.52
		c3.46-0.09,6.67-0.2,10.39-1.64c2.39-0.92,3.64-1.86,3.76-1.7c0.2,0.29-3.37,3.44-8.15,5.53c-1.24,0.54-2.32,0.91-3.12,1.15
		c0,0,0,0,0,0c-0.91,0.25-2.36,0.59-6.69,1c-3.04,0.29-4.56,0.43-5.84,0.42c-3.93-0.03-6.74-0.82-7.64-1.08
		c-0.77-0.22-6.78-1.96-7.86-5.6C269.41,357.63,270.58,355.04,271.95,354.93z"/>
	<path class="st18" d="M426.15,387.13"/>
	<path class="st19" d="M307.76,358.64"/>
	<path class="st15" d="M344.86,360.44c0,0,0,0,0.02-0.02c0.37-0.33,2.92-2.42,2.92-2.42c1.93-1.48,40.69-34.37,40.1-35.07
		c-0.38-0.45-16.91,13.09-24.79,18.71l0,0c-2.11,1.47-3.68,2.62-4.96,3.59c-4.59,3.48-4.54,3.58-7.6,5.78
		c-2.31,1.66-5.27,3.67-8.05,5.82c0,0-0.82,0.63-3.26,3.03c-1.25,1.23-1.37,1.43-1.31,1.63
		C338.24,362.46,342.78,362.29,344.86,360.44z"/>
	<path class="st20" d="M388.14,366.79c-26.19,17.19-30.93,21.07-38.04,19.7c-5.67-1.09-12.32-5.41-14.55-12
		c-1.26-3.74-0.77-7.19-0.28-9.22c-0.84,1.92-3.1,7.77-0.87,14.03c2.59,7.26,9.88,11.34,15.7,12.34
		c9.01,1.55,18.53-5.48,36.94-19.91c8.13-6.37,18.03-14.61,17.62-15.15C404.44,356.31,402.22,357.55,388.14,366.79z"/>
	<path class="st15" d="M272.53,356.47c-0.01,0-0.02,0-0.04,0c-0.66-0.02-4.99-0.02-4.99-0.02c-12.04,0-18.06,0.3-24.79,1.25
		c-1.32,0.19-3.42,0.51-6.02,1.01c-0.9,0.05-1.53-0.18-1.86-0.34c-0.34-0.16-0.67-0.38-0.67-0.38c0-0.01,0.6,0.32,0.6,0.33
		c-0.01,0.01-0.45-0.28-0.94-0.44c-1.27-0.42-2.51,0.17-2.54,0.1c-0.04-0.13,1.26-0.55,1.26-0.55c4.62-1.48,18.88-3.35,21.63-3.31
		c0.05,0,0.34,0.02,0.73,0.02c0.52,0,0.9-0.04,1-0.05c1.61-0.13,17.42,0.6,17.54,0.76c0.06,0.08-0.19,0.14-0.24,0.36
		c-0.02,0.07-0.02,0.2,0.15,0.4c0.46,0.54,1.61,0.89,1.52,0.99C274.79,356.69,274.07,356.51,272.53,356.47z"/>
	<path class="st18" d="M231.07,428.64"/>
	<path class="st21" d="M418.13,314.72"/>
	<path class="st22" d="M235.65,438.97c0.8-1.03,1.78-0.54,3.92-2.24c0.78-0.62,1.33-1.22,1.68-1.65c0.44-0.59,0.89-1.21,1.37-1.85
		c1.14-1.56,1.89-2.59,2.46-3.38c0.49-0.68,0.83-1.16,0.89-1.24c5.47-7.67,10.04-11.85,10.04-11.86c4.85-4.45,6.83-4.32,9.63-8.84
		c0.84-1.35,1.33-2.45,2.19-4.36c3.8-8.42,4.26-13.77,4.64-13.46c0.74,0.62,1.27,23.69-7.75,27.69c-4.71,2.09-5.73,2.99-7.79,4.81
		c-1.76,1.56-3.24,3.42-3.24,3.42c-1.4,1.74-2.15,3.15-2.91,4.54c-4.24,7.68-4.57,6.08-6,9.8c-0.58,1.51-1.79,3.54-4.22,7.61
		c-0.32,0.54-1.1,1.68-2.32,1.19c-0.03-0.01-0.07-0.03-0.12-0.06C237.12,448.53,234.89,439.96,235.65,438.97z"/>
	<path class="st22" d="M339.46,466.85c-0.08-1.34,1.08-1.6,1.64-4.35c0.2-1,0.23-1.84,0.21-2.41c-0.06-0.75-0.12-1.54-0.19-2.36
		c-0.17-1.98-0.29-3.29-0.38-4.29c-0.08-0.86-0.14-1.46-0.15-1.56c-0.95-9.64-0.17-15.95-0.17-15.95c0.84-6.7,2.56-7.92,1.64-13.32
		c-0.27-1.57-0.5-2.13-1.3-4.87c-1.45-4.98-1.48-6.22-1.36-7.26c0.18-1.6,0.68-2.7,0.79-2.94c1.03-2.21,2.75-3.4,3.32-3.81
		c5.12-3.73,7.88-11.53,8.93-11.09c0.78,0.33-0.83,4.59-2.3,11.49c-2.42,11.37-3.66,30.3-4.22,32.67c-0.01,0.02-0.04,0.17-0.08,0.36
		c-0.12,0.53-0.32,1.5-0.48,2.72c-0.32,2.44-0.26,4.3-0.24,4.83c0.05,1.13,0.31,2.6,0.84,5.49c0.91,5.03,0.99,5.09,1.12,6.51
		c0.2,2.22-0.01,2.72,0.92,5.15c0.6,1.57,1.05,3.97,1.95,8.76c0.12,0.64,0.29,2.05-1.07,2.47c-0.03,0.01-0.08,0.02-0.14,0.03
		C347.5,473.36,339.54,468.13,339.46,466.85z"/>
	<g>
		<circle class="st23" cx="249.32" cy="237.73" r="12.65"/>
		<circle class="st23" cx="343.55" cy="237.73" r="12.65"/>
		<circle class="st24" cx="340.81" cy="234.31" r="4.67"/>
		<circle class="st24" cx="253.35" cy="234.31" r="4.67"/>
	</g>
</g>
<g id="Eyes">
</g>
</svg>
